<mxfile host="65bd71144e">
    <diagram id="ZgUFbRrm8wUiw-SeNZ-O" name="Page-1">
        <mxGraphModel dx="1228" dy="863" grid="1" gridSize="10" guides="1" tooltips="1" connect="1" arrows="1" fold="1" page="1" pageScale="1" pageWidth="1169" pageHeight="827" math="0" shadow="0">
            <root>
                <mxCell id="0"/>
                <mxCell id="1" parent="0"/>
                <mxCell id="2" value="OS" style="rounded=0;whiteSpace=wrap;html=1;" vertex="1" parent="1">
                    <mxGeometry x="110" y="610" width="960" height="40" as="geometry"/>
                </mxCell>
                <mxCell id="3" value="docker" style="rounded=0;whiteSpace=wrap;html=1;" vertex="1" parent="1">
                    <mxGeometry x="110" y="560" width="880" height="40" as="geometry"/>
                </mxCell>
                <mxCell id="4" value="kubernates" style="rounded=0;whiteSpace=wrap;html=1;" vertex="1" parent="1">
                    <mxGeometry x="110" y="510" width="790" height="40" as="geometry"/>
                </mxCell>
                <mxCell id="5" value="WebApp" style="rounded=0;whiteSpace=wrap;html=1;" vertex="1" parent="1">
                    <mxGeometry x="110" y="340" width="70" height="110" as="geometry"/>
                </mxCell>
                <mxCell id="6" value="WebApp" style="rounded=0;whiteSpace=wrap;html=1;" vertex="1" parent="1">
                    <mxGeometry x="230" y="340" width="70" height="110" as="geometry"/>
                </mxCell>
                <mxCell id="7" value="Service" style="rounded=0;whiteSpace=wrap;html=1;" vertex="1" parent="1">
                    <mxGeometry x="320" y="340" width="70" height="110" as="geometry"/>
                </mxCell>
                <mxCell id="8" value="Service" style="rounded=0;whiteSpace=wrap;html=1;" vertex="1" parent="1">
                    <mxGeometry x="440" y="340" width="70" height="110" as="geometry"/>
                </mxCell>
                <mxCell id="9" value="Spring" style="rounded=0;whiteSpace=wrap;html=1;" vertex="1" parent="1">
                    <mxGeometry x="110" y="460" width="690" height="40" as="geometry"/>
                </mxCell>
                <mxCell id="10" value="软件架构图" style="text;html=1;strokeColor=none;fillColor=none;align=left;verticalAlign=middle;whiteSpace=wrap;rounded=0;fontSize=15;" vertex="1" parent="1">
                    <mxGeometry x="10" y="10" width="340" height="30" as="geometry"/>
                </mxCell>
            </root>
        </mxGraphModel>
    </diagram>
</mxfile>